<?xml version="1.0" standalone="no"?>
<!DOCTYPE svg PUBLIC "-//W3C//DTD SVG 20010904//EN"
 "http://www.w3.org/TR/2001/REC-SVG-20010904/DTD/svg10.dtd">
<svg version="1.0" xmlns="http://www.w3.org/2000/svg"
 width="610.000000pt" height="409.000000pt" viewBox="0 0 610.000000 409.000000"
 preserveAspectRatio="xMidYMid meet">

<g transform="translate(0.000000,409.000000) scale(0.100000,-0.100000)"
fill="#000000" stroke="none">
<path d="M3056 3521 c-12 -13 -14 -21 -6 -26 8 -5 5 -11 -7 -20 -23 -17 -36
-9 -23 16 13 23 7 24 -56 8 -28 -7 -51 -21 -61 -35 -19 -29 -31 -30 -35 -4 -3
19 -5 19 -63 -9 -33 -17 -71 -37 -85 -45 -14 -8 -57 -24 -97 -35 -76 -22 -155
-74 -161 -105 -2 -10 -19 -32 -38 -48 -24 -21 -36 -42 -40 -70 -4 -22 -17 -52
-30 -67 -32 -39 -40 -77 -18 -89 14 -8 15 -14 6 -40 -7 -20 -7 -34 -1 -37 5
-4 9 -14 9 -24 0 -10 9 -30 20 -44 17 -21 21 -44 24 -148 5 -143 28 -240 76
-326 46 -82 96 -140 162 -188 l57 -42 -35 -51 c-35 -53 -120 -126 -135 -116
-5 3 -9 13 -9 23 0 9 -23 43 -51 74 l-50 57 22 31 c12 17 24 50 26 72 4 35 0
50 -29 91 -28 42 -44 54 -102 79 -38 16 -93 31 -123 34 -53 6 -53 6 -59 45 -7
44 -28 60 -61 47 -16 -6 -23 -17 -23 -36 0 -41 -9 -49 -75 -68 -167 -48 -249
-138 -216 -238 7 -19 21 -43 31 -52 27 -25 25 -35 -12 -70 -62 -56 -76 -82
-69 -117 l7 -33 180 4 179 3 13 -43 c18 -65 96 -144 175 -176 72 -30 214 -43
268 -24 18 6 34 10 36 8 1 -2 -1 -48 -6 -103 -25 -265 -32 -384 -22 -402 6
-12 26 -22 49 -26 38 -6 39 -7 46 -52 3 -26 6 -68 6 -93 0 -106 28 -143 123
-163 67 -14 120 -4 158 30 29 26 31 31 39 147 5 66 9 121 9 123 1 1 62 2 136
2 157 0 139 17 154 -150 9 -94 12 -107 36 -127 78 -68 264 -44 286 37 4 14 7
73 8 131 l1 107 46 7 c66 10 85 32 77 95 -6 49 -5 52 31 83 30 26 40 44 52 97
19 77 14 220 -11 326 -25 105 -128 306 -197 383 l-58 65 49 45 c56 53 121 160
148 243 14 44 23 58 37 58 37 0 105 41 127 77 43 69 42 161 -2 209 -21 23 -25
49 -8 60 6 3 9 19 5 35 -4 20 -1 31 11 37 21 13 12 48 -27 97 -18 23 -30 49
-30 68 0 41 -34 88 -87 121 -24 16 -43 34 -43 42 0 21 -38 51 -71 56 -39 6
-38 -17 2 -31 17 -6 28 -15 25 -20 -6 -8 38 -51 112 -108 20 -16 29 -43 31
-95 1 -10 15 -33 31 -51 32 -37 38 -52 16 -44 -10 4 -14 -4 -14 -31 -1 -88 -2
-92 -20 -92 -10 0 -23 5 -29 11 -8 8 -22 8 -49 0 -53 -15 -54 -14 -54 13 0 14
-4 28 -10 31 -5 3 -10 28 -10 54 0 34 -5 53 -19 65 -15 14 -19 31 -18 89 1 82
-14 120 -71 180 -38 39 -37 47 3 21 21 -14 25 -14 25 -2 0 27 -37 51 -72 46
-25 -4 -45 3 -91 33 -65 42 -112 55 -154 43 -16 -4 -33 -6 -39 -5 -6 0 -17 -6
-24 -14 -12 -14 -10 -15 11 -10 33 8 109 -19 189 -66 79 -48 93 -60 149 -127
44 -53 44 -53 37 -114 -6 -56 -4 -64 18 -87 16 -17 26 -43 30 -76 13 -107 17
-97 -43 -112 -47 -12 -55 -12 -70 1 -43 39 -201 46 -332 15 -70 -16 -93 -26
-112 -48 -32 -39 -105 -42 -141 -6 -37 37 -98 50 -236 50 -101 0 -134 -4 -166
-18 -39 -18 -43 -18 -73 -3 -17 9 -31 20 -31 24 0 4 11 46 25 92 35 123 94
237 158 306 57 61 184 145 224 148 13 0 23 4 23 8 0 4 19 12 43 18 23 6 50 13
59 16 13 4 15 0 12 -18 -5 -22 -5 -22 11 2 l16 25 -6 -25 c-5 -25 -5 -25 6 -2
11 20 19 22 103 22 56 1 100 6 115 14 36 20 10 29 -89 33 -103 3 -99 3 -76 12
12 4 15 10 9 14 -6 4 -18 -2 -27 -12z m-451 -201 c-10 -11 -21 -17 -25 -15 -5
3 -13 -8 -18 -24 -8 -24 -51 -93 -89 -146 -5 -6 -9 -17 -11 -25 -2 -8 -12 -40
-22 -70 -11 -30 -25 -82 -32 -115 -10 -49 -13 -55 -16 -30 -2 16 -8 33 -13 36
-6 3 -3 21 6 42 15 36 14 37 -5 37 -27 0 -25 14 5 54 14 18 25 42 25 54 0 36
22 72 57 93 18 11 36 32 39 46 7 26 76 83 102 83 12 0 12 -3 -3 -20z m899
-499 c24 -20 21 -134 -4 -188 -29 -65 -66 -83 -176 -83 -78 0 -96 3 -124 23
-48 32 -80 98 -80 164 0 59 0 59 100 89 58 17 261 14 284 -5z m-625 -16 l46
-11 3 -54 c6 -100 -53 -191 -133 -206 -57 -10 -143 1 -173 23 -40 29 -66 89
-70 163 -3 52 -1 69 12 79 36 30 210 33 315 6z m978 -1 c23 -23 25 -32 21 -80
-6 -73 -42 -112 -113 -122 l-48 -7 -31 -90 c-54 -154 -172 -285 -315 -350 -38
-17 -42 -17 -59 -2 -26 23 -32 22 -116 -22 -41 -21 -78 -36 -81 -32 -4 3 -30
6 -58 7 -29 0 -77 10 -108 22 -46 17 -62 19 -86 10 -26 -10 -37 -7 -99 26
-210 110 -323 304 -324 554 l0 83 30 -16 c26 -14 30 -21 30 -60 0 -49 30 -138
58 -171 48 -57 169 -79 266 -49 85 27 138 90 154 187 13 77 86 69 107 -12 28
-111 71 -153 174 -172 71 -13 188 1 229 28 34 22 73 118 79 191 5 58 7 61 36
67 47 9 57 7 57 -13 0 -44 62 -52 75 -10 7 21 60 59 83 59 7 0 24 -12 39 -26z
m-137 9 c0 -5 -4 -15 -10 -23 -11 -18 -25 -7 -17 15 6 15 27 21 27 8z m-1600
-312 c5 -11 10 -33 10 -50 0 -26 -4 -31 -24 -31 -19 0 -25 6 -28 29 -5 33 7
71 21 71 6 0 15 -9 21 -19z m-170 -131 c0 -5 -17 -10 -37 -9 -31 0 -34 2 -18
9 28 12 55 12 55 0z m251 -10 c98 -19 162 -84 140 -143 -21 -54 -145 -117
-174 -88 -8 8 -8 11 2 11 7 0 9 5 6 10 -4 6 -12 7 -23 1 -9 -5 -26 -5 -39 0
-20 7 -23 5 -23 -14 0 -18 2 -19 10 -7 9 13 10 13 10 0 0 -13 1 -13 10 0 7 11
10 11 10 2 0 -7 4 -11 9 -7 5 3 12 1 16 -5 10 -15 -104 -12 -161 5 -27 8 -65
27 -83 43 -28 23 -35 36 -35 66 0 50 35 83 121 112 75 26 123 29 204 14z
m-351 -30 c0 -5 -5 -10 -11 -10 -5 0 -7 5 -4 10 3 6 8 10 11 10 2 0 4 -4 4
-10z m1430 -230 c0 -5 -5 -12 -11 -16 -14 -8 -33 11 -25 25 7 11 36 4 36 -9z
m-842 -35 c31 -44 31 -45 9 -49 -12 -3 -175 -8 -362 -11 l-340 -6 43 41 c47
44 61 48 95 25 63 -41 247 -57 349 -30 52 13 121 45 143 66 17 17 31 9 63 -36z
m481 36 c12 -8 12 -12 2 -25 -17 -20 -27 -20 -35 0 -11 29 6 42 33 25z m76
-39 c-3 -3 -11 0 -18 7 -9 10 -8 11 6 5 10 -3 15 -9 12 -12z m199 9 c3 -5 -1
-11 -9 -15 -15 -6 -29 7 -18 18 9 9 21 8 27 -3z m-84 -27 c0 -8 -7 -14 -15
-14 -15 0 -21 21 -9 33 10 9 24 -2 24 -19z m190 -21 c0 -20 -3 -24 -11 -16 -7
7 -9 19 -6 27 10 24 17 19 17 -11z m-410 -8 c0 -8 -4 -17 -10 -20 -6 -4 -10 5
-10 20 0 15 4 24 10 20 6 -3 10 -12 10 -20z m66 14 c8 -14 -11 -33 -25 -25
-11 7 -4 36 9 36 5 0 12 -5 16 -11z m290 0 c10 -17 -13 -36 -27 -22 -12 12 -4
33 11 33 5 0 12 -5 16 -11z m-178 -33 c3 -12 -1 -17 -10 -14 -7 3 -15 13 -16
22 -3 12 1 17 10 14 7 -3 15 -13 16 -22z m123 -12 c12 -14 11 -16 -5 -13 -11
2 -21 10 -24 17 -5 17 13 15 29 -4z m-701 -15 c0 -18 -6 -20 -62 -18 -78 2
-492 -9 -610 -17 -83 -5 -88 -4 -88 14 0 19 11 20 218 27 119 4 251 5 292 1
41 -3 91 -2 110 3 19 5 59 9 88 10 46 1 52 -1 52 -20z m510 12 c0 -12 -20 -25
-27 -18 -7 7 6 27 18 27 5 0 9 -4 9 -9z m276 -12 c10 -17 -13 -36 -27 -22 -12
12 -4 33 11 33 5 0 12 -5 16 -11z m-336 -20 c0 -13 -20 -21 -35 -15 -22 8 -7
35 16 29 10 -3 19 -9 19 -14z m224 -19 c22 -13 33 -26 29 -33 -5 -10 -88 -131
-100 -146 -6 -8 -50 40 -88 95 l-38 55 32 27 c42 35 112 36 165 2z m-911 -27
c-4 -10 -17 -35 -29 -56 l-21 -38 -27 23 c-14 13 -29 38 -32 56 l-6 32 60 0
c54 0 61 -2 55 -17z m967 -123 c-4 -52 -6 -158 -3 -235 3 -77 6 -160 7 -185 1
-31 -3 -44 -11 -42 -7 1 -13 -2 -13 -8 0 -19 -19 -10 -60 28 -36 35 -40 44
-40 86 0 35 3 45 13 40 9 -6 9 -4 -1 8 -9 11 -12 49 -11 128 l2 112 61 83 c34
46 61 83 62 82 1 -1 -2 -45 -6 -97z m-240 47 c0 -5 19 -34 43 -65 l42 -57 -3
-87 c-3 -67 -6 -86 -17 -82 -7 3 -16 1 -20 -5 -3 -6 2 -11 13 -11 15 0 22 -9
26 -35 4 -20 3 -41 -1 -48 -11 -17 -10 -50 2 -60 11 -8 -58 -77 -77 -77 -7 0
-20 6 -29 13 -14 10 -15 21 -8 62 5 28 7 150 5 273 -3 190 -2 220 10 205 7
-10 14 -22 14 -26z m769 -409 c-24 -87 -106 -90 -138 -6 l-10 27 62 4 c34 2
70 4 79 5 14 2 15 -3 7 -30z m-581 -147 c11 -6 28 -4 47 3 28 12 30 11 50 -28
28 -58 82 -84 196 -98 l92 -12 -6 -109 c-4 -60 -12 -116 -18 -123 -16 -20
-162 -19 -182 0 -9 9 -16 48 -21 102 -14 187 -22 194 -216 194 -130 0 -132 0
-159 -28 -26 -26 -28 -34 -33 -136 -4 -76 -10 -113 -21 -123 -33 -34 -167 -23
-182 15 -4 9 -9 63 -12 118 l-6 102 62 7 c36 4 74 16 93 29 30 20 71 71 81 99
2 8 12 6 31 -6 27 -18 28 -18 67 8 21 15 44 34 50 41 9 11 17 8 41 -16 16 -17
37 -34 46 -39z"/>
<path d="M3251 2764 c-62 -79 29 -176 109 -115 35 28 34 85 -4 117 -37 32 -79
31 -105 -2z"/>
<path d="M2716 2757 c-52 -53 -23 -137 47 -137 52 0 77 24 77 74 0 49 -19 72
-67 82 -26 5 -37 1 -57 -19z"/>
<path d="M2047 2325 c-60 -12 -107 -45 -107 -76 0 -46 101 -85 193 -74 71 8
95 16 125 45 71 67 -65 134 -211 105z"/>
<path d="M2256 2192 c-5 -14 -14 -19 -32 -17 -28 3 -36 -5 -24 -24 6 -10 15
-11 36 -4 35 12 53 38 37 54 -8 8 -13 6 -17 -9z"/>
<path d="M1955 2190 c4 -6 -1 -7 -11 -3 -12 4 -15 2 -12 -8 3 -8 11 -13 17
-11 6 1 11 -3 11 -10 0 -6 3 -8 7 -5 3 4 12 -1 19 -11 12 -15 15 -15 24 -2 9
13 12 13 21 -4 9 -15 13 -16 20 -5 6 10 9 11 9 2 0 -7 5 -13 10 -13 6 0 10 7
10 15 0 9 -9 15 -25 15 -14 0 -25 5 -25 11 0 5 -5 7 -10 4 -16 -10 -50 5 -50
21 0 8 -5 14 -11 14 -5 0 -7 -4 -4 -10z"/>
<path d="M3150 1693 c0 -5 4 -14 9 -22 11 -17 32 -5 24 14 -5 15 -33 21 -33 8z"/>
<path d="M3114 1649 c-8 -14 11 -33 25 -25 6 4 11 14 11 22 0 16 -26 19 -36 3z"/>
<path d="M3126 1553 c-12 -12 -6 -33 9 -33 8 0 15 6 15 14 0 17 -14 28 -24 19z"/>
<path d="M3120 1426 c0 -8 4 -17 9 -20 11 -7 33 18 24 27 -12 12 -33 7 -33 -7z"/>
<path d="M3005 1591 c3 -5 -1 -12 -7 -14 -7 -3 -4 -6 8 -6 11 -1 26 -7 33 -13
11 -10 11 -8 0 9 -8 13 -20 25 -27 28 -7 2 -11 1 -7 -4z"/>
<path d="M2970 1545 c0 -14 4 -25 9 -25 4 0 6 11 3 25 -2 14 -6 25 -8 25 -2 0
-4 -11 -4 -25z"/>
<path d="M3010 1415 c0 -8 2 -15 4 -15 2 0 6 7 10 15 3 8 1 15 -4 15 -6 0 -10
-7 -10 -15z"/>
<path d="M3005 1380 c-4 -6 3 -10 14 -10 25 0 27 6 6 13 -8 4 -17 2 -20 -3z"/>
<path d="M3151 3379 c-8 -22 -7 -29 1 -27 6 2 12 16 14 31 4 35 -2 34 -15 -4z"/>
<path d="M2865 3390 c3 -5 8 -10 11 -10 2 0 4 5 4 10 0 6 -5 10 -11 10 -5 0
-7 -4 -4 -10z"/>
</g>
</svg>
