<?xml version="1.0" standalone="no"?>
<!DOCTYPE svg PUBLIC "-//W3C//DTD SVG 20010904//EN"
 "http://www.w3.org/TR/2001/REC-SVG-20010904/DTD/svg10.dtd">
<svg version="1.0" xmlns="http://www.w3.org/2000/svg"
 width="320.000000pt" height="136.000000pt" viewBox="0 0 320.000000 136.000000"
 preserveAspectRatio="xMidYMid meet">

<g transform="translate(0.000000,136.000000) scale(0.100000,-0.100000)"
fill="#6e4216" stroke="none">
<path d="M795 1350 c-3 -5 -37 -10 -75 -10 -38 0 -72 -4 -75 -10 -3 -5 -24
-10 -46 -10 -21 0 -39 -4 -39 -10 0 -5 -22 -10 -50 -10 -27 0 -50 -3 -50 -8 0
-4 -17 -15 -37 -24 -21 -9 -49 -27 -63 -40 -14 -13 -37 -29 -52 -37 -16 -8
-28 -18 -28 -23 0 -4 -5 -8 -11 -8 -6 0 -27 -13 -46 -30 -18 -16 -41 -30 -51
-30 -20 -1 -102 -84 -118 -120 -28 -63 -34 -84 -34 -120 0 -21 -4 -42 -10 -45
-13 -8 -13 -272 0 -280 5 -3 10 -17 10 -30 0 -13 5 -27 10 -30 6 -3 10 -14 10
-24 0 -9 14 -30 30 -46 17 -16 30 -32 30 -36 0 -5 11 -24 25 -44 23 -35 59
-66 119 -102 15 -10 44 -28 63 -40 18 -13 43 -23 54 -23 11 0 34 -8 52 -17 41
-22 147 -32 467 -43 140 -5 307 -14 370 -20 63 -6 302 -15 530 -20 437 -9 559
-16 575 -31 5 -5 71 -9 147 -9 144 0 134 -2 258 53 14 6 37 19 52 29 14 10 33
18 41 18 8 0 30 15 49 33 18 18 47 42 65 52 17 10 34 27 36 37 3 10 12 18 19
18 8 0 21 12 29 28 8 15 22 36 32 46 9 11 17 27 17 35 0 9 14 43 30 76 19 38
30 75 30 102 0 23 5 45 10 48 6 3 10 17 10 30 0 13 5 27 10 30 6 4 10 62 10
141 0 121 -2 137 -20 156 -11 12 -20 29 -20 39 0 9 -7 22 -15 29 -8 6 -17 21
-21 33 -9 28 -29 47 -48 47 -9 0 -16 7 -16 16 0 14 -22 44 -34 44 -2 0 -40 22
-83 48 -148 90 -114 86 -743 93 -544 7 -655 12 -674 30 -6 5 -34 9 -62 9 -29
0 -56 5 -59 10 -4 6 -117 10 -305 10 -188 0 -301 -4 -305 -10z m695 -89 c36
-7 133 -16 215 -22 166 -11 848 -14 936 -4 49 6 63 3 119 -24 35 -17 71 -31
80 -31 9 0 25 -9 35 -20 10 -11 28 -20 40 -20 14 0 33 -13 49 -35 15 -19 38
-38 51 -41 16 -4 25 -13 25 -25 0 -10 9 -24 20 -31 11 -7 20 -24 20 -37 0 -13
8 -33 17 -43 29 -33 39 -78 31 -153 -8 -82 -26 -173 -39 -197 -5 -10 -9 -28
-9 -41 0 -13 -9 -42 -20 -65 -11 -22 -20 -48 -20 -55 0 -8 -7 -17 -15 -21 -8
-3 -12 -12 -9 -21 4 -10 0 -15 -10 -15 -9 0 -23 -17 -33 -40 -12 -26 -24 -40
-36 -40 -11 0 -35 -17 -56 -37 -20 -21 -40 -36 -44 -35 -4 1 -10 -5 -13 -13
-4 -8 -14 -15 -24 -15 -9 0 -28 -8 -41 -19 -13 -10 -42 -24 -64 -31 -22 -7
-44 -16 -49 -21 -6 -5 -19 -9 -31 -9 -12 0 -26 -5 -32 -11 -7 -7 -32 -9 -64
-5 -87 9 -209 25 -279 37 -36 6 -252 15 -480 19 -228 5 -505 14 -615 19 -110
6 -294 13 -410 17 -173 5 -219 10 -262 26 -29 10 -55 24 -58 29 -4 5 -19 9
-34 9 -16 0 -40 9 -54 20 -14 11 -28 20 -32 20 -16 0 -95 85 -95 102 0 11 -7
18 -18 18 -26 0 -42 20 -42 52 0 19 -9 34 -30 50 -16 12 -30 29 -30 38 0 9 -5
21 -11 27 -7 7 -12 49 -11 110 0 76 5 109 21 146 12 27 21 54 21 61 0 7 9 21
20 31 11 10 20 28 20 40 0 19 36 64 46 58 11 -7 34 12 34 28 0 12 7 19 19 19
24 0 59 19 91 48 29 28 143 101 183 120 15 6 44 12 64 12 20 0 50 4 67 10 17
5 51 13 76 19 62 13 689 6 770 -8z"/>
</g>
</svg>
